<?xml version="1.0" encoding="UTF-8"?>
<svg width="62px" height="62px" viewBox="0 0 62 62" version="1.1" xmlns="http://www.w3.org/2000/svg" xmlns:xlink="http://www.w3.org/1999/xlink">
    <!-- Generator: Sketch 53.2 (72643) - https://sketchapp.com -->
    <title>Group5</title>
    <desc>Created with Sketch.</desc>
    <g id="Group5" stroke="none" stroke-width="1" fill="none" fill-rule="evenodd">
        <g transform="translate(1.000000, 1.000000)" fill="#161514" fill-rule="nonzero" id="Fill-1" stroke="#FFFFFF" stroke-width="0.5">
            <path d="M58,54 C58,56.209125 56.209125,58 54,58 L6,58 C3.790875,58 2,56.209125 2,54 L2,53 C2,52.44775 2.44775,52 3,52 L22,52 L22,53 C22,54.656875 23.343125,56 25,56 L35,56 C36.656875,56 38,54.656875 38,53 L38,52 L57,52 C57.55225,52 58,52.44775 58,53 L58,54 Z M24,52 L36,52 L36,53 C36,53.55225 35.55225,54 35,54 L25,54 C24.44775,54 24,53.55225 24,53 L24,52 Z M4,19 C4,18.44775 4.44775,18 5,18 L14,18 L14,35 L7,35 C6.44775,35 6,35.44775 6,36 L6,40 C6.00325,43.312375 8.687625,45.99675 12,46 L40,46 C43.312375,45.99675 45.99675,43.312375 46,40 L46,18 L55,18 C55.55225,18 56,18.44775 56,19 L56,50 L4,50 L4,19 Z M34,37 L34,40 C34.000375,41.478 34.54925,42.903375 35.54,44 L12,44 C9.790875,44 8,42.209125 8,40 L8,37 L34,37 Z M20,2 L45.54,2 C44.54925,3.096625 44.000375,4.522 44,6 L44,40 C44,42.209125 42.209125,44 40,44 C37.790875,44 36,42.209125 36,40 L36,36 C36,35.44775 35.55225,35 35,35 L16,35 L16,6 C16,3.790875 17.790875,2 20,2 L20,2 Z M54,6 L54,10 L46,10 L46,6 C46,3.790875 47.790875,2 50,2 C52.209125,2 54,3.790875 54,6 L54,6 Z M58,50.184 L58,19 C58,17.343125 56.656875,16 55,16 L46,16 L46,12 L55,12 C55.55225,12 56,11.55225 56,11 L56,6 C55.99675,2.687625 53.312375,0.00325 50,0 L20,0 C16.687625,0.00325 14.00325,2.687625 14,6 L14,16 L5,16 C3.343125,16 2,17.343125 2,19 L2,50.184 C0.805625,50.60625 0.00525,51.733125 0,53 L0,54 C0.00325,57.312375 2.687625,59.99675 6,60 L54,60 C57.312375,59.99675 59.99675,57.312375 60,54 L60,53 C59.99475,51.733125 59.194375,50.60625 58,50.184 L58,50.184 Z"></path>
        </g>
        <path d="M36.1355021,13.2124981 C36.7448756,13.7372365 37.1595881,14.3635369 37.3796398,15.0913998 C37.5658371,15.7515545 37.5658371,16.4244045 37.3796398,17.1099497 C37.1934424,17.7954949 36.8718285,18.375246 36.4147983,18.8492034 L31.9714495,23.3687238 C31.7006167,23.6395567 31.3790032,23.7749729 31.0066081,23.7749729 C30.634213,23.7749729 30.3125994,23.6395567 30.0417666,23.3687238 L25.5984178,18.8492034 C25.1413877,18.375246 24.8197737,17.7954949 24.6335764,17.1099497 C24.4473791,16.4244045 24.4558424,15.7515545 24.658967,15.0913998 C24.8620915,14.3635369 25.2683405,13.7372365 25.8777141,13.2124981 C26.3516714,12.806249 26.9018,12.5523434 27.5281007,12.4507811 C28.1544015,12.3492189 28.7764703,12.4 29.3943072,12.6031245 C30.0121442,12.806249 30.5495779,13.1363264 31.0066081,13.5933565 C31.4636382,13.1363264 32.001072,12.806249 32.6189089,12.6031245 C32.9075468,12.5082298 33.1971083,12.4465845 33.4875935,12.4181884 C33.8188993,12.385802 34.1514066,12.3966662 34.4851154,12.4507811 C35.1114161,12.5523434 35.6615448,12.806249 36.1355021,13.2124981 Z M35.300217,17.9129612 C35.5884997,17.6253546 35.7927,17.2734152 35.9128178,16.8571428 C36.0329356,16.4408705 36.0289315,16.0283822 35.900806,15.6196783 C35.7726805,15.1807002 35.5084213,14.8022706 35.1080286,14.4843898 C34.6435732,14.1210974 34.095035,13.962157 33.4624148,14.0075686 C32.8297945,14.0529801 32.2892644,14.2951751 31.8408246,14.7341533 L31,15.5288552 L30.1591754,14.7341533 C29.7107356,14.2951751 29.1702055,14.0529801 28.5375852,14.0075686 C27.904965,13.962157 27.3564268,14.1210974 26.8919714,14.4843898 C26.4915787,14.8022706 26.2273195,15.1807002 26.099194,15.6196783 C25.9710685,16.0283822 25.9670644,16.4408705 26.0871822,16.8571428 C26.2073,17.2734152 26.4115003,17.6253546 26.699783,17.9129612 L30.9279293,21.9545884 C30.9759764,22.0151372 31.0240236,22.0151372 31.0720707,21.9545884 L35.300217,17.9129612 Z" id="" fill="#FF5F32" fill-rule="nonzero"></path>
    </g>
</svg>